<svg width="671" height="220" viewBox="0 0 671 220" fill="none" xmlns="http://www.w3.org/2000/svg">
<rect x="1.5" y="1.5" width="267" height="217" rx="6.5" stroke="#C4C4C4" stroke-width="3" stroke-dasharray="4 4"/>
<rect x="402.5" y="1.5" width="267" height="217" rx="6.5" stroke="#C4C4C4" stroke-width="3" stroke-dasharray="4 4"/>
<rect x="411" y="10" width="250" height="60" rx="6" fill="#C4C4C4"/>
<rect x="411" y="80" width="250" height="60" rx="6" fill="#C4C4C4" fill-opacity="0.4"/>
<rect x="411" y="150" width="250" height="60" rx="6" fill="#C4C4C4"/>
<rect x="79" y="10" width="250" height="60" rx="6" fill="#D7D7D7"/>
<path d="M537.5 96.5C470.5 40.0001 468.7 40 341.5 40" stroke="#546E7A" stroke-width="4" stroke-dasharray="4 4"/>
<ellipse cx="315" cy="40.5" rx="12" ry="13.5" fill="white"/>
<ellipse cx="314.327" cy="40.796" rx="11.5586" ry="13.5" transform="rotate(42.1252 314.327 40.796)" fill="white"/>
<ellipse cx="316.312" cy="39.3115" rx="9.56806" ry="13.5" transform="rotate(135 316.312 39.3115)" fill="white"/>
<ellipse cx="315.312" cy="39.3115" rx="9.56806" ry="13.5" transform="rotate(135 315.312 39.3115)" fill="white"/>
<path d="M318.067 26.2277L316.712 26.9316C316.474 26.4731 315.546 25.7907 314.856 25.5668C314.166 25.3429 313.25 25.2363 311.895 25.9403C311.443 26.1749 310.991 26.4095 310.659 26.8734C310.195 26.5322 309.85 26.4203 309.386 26.0791C308.696 25.8552 307.78 25.7486 306.424 26.4525C304.617 27.3911 304.309 29.0067 304.452 30.3876C304.227 30.5049 303.656 30.5103 303.204 30.7449C302.074 31.3315 301.635 32.142 301.195 32.9525C300.78 34.9146 301.733 36.7487 301.852 36.9779L302.328 37.895C300.973 38.5989 300.081 39.644 299.761 40.6837C299.239 42.9924 300.31 45.0558 301.739 47.8069L302.573 49.4117C304.239 52.6213 306.654 53.4049 309.069 54.1885L310.223 54.7536C314.588 55.9796 317.775 55.4888 323.649 52.4385C330.2 49.0363 331.231 43.843 327.064 35.819L324.088 30.0875C323.254 28.4827 321.135 25.5077 318.067 26.2277ZM313.085 28.2329C313.989 27.7636 314.691 28.5633 314.929 29.0218L315.882 30.8559C316.239 31.5437 316.929 31.7676 317.381 31.5329C318.058 31.181 318.391 30.7171 318.034 30.0293C318.034 30.0293 317.558 29.1123 318.58 28.8722C320.174 28.6269 321.471 30.5729 321.71 31.0314L324.805 36.9921C328.853 44.787 326.75 47.9169 322.458 50.146C317.037 52.9616 314.646 53.3297 311.197 52.2103L309.817 51.7625C307.402 50.9789 306.022 50.5311 304.832 48.2385L304.117 46.863C302.927 44.5704 301.974 42.7363 302.295 41.6966C302.282 41.1207 302.841 40.5395 303.519 40.1876L304.471 42.0216L305.222 45.1247C305.341 45.354 305.341 45.354 305.567 45.2367C305.912 45.3486 306.019 45.002 306.019 45.002L306.849 41.0777L304.349 36.2633C304.23 36.034 303.634 34.8877 303.848 34.1946C303.955 33.848 304.062 33.5014 304.514 33.2668C305.191 32.9148 305.655 33.256 305.893 33.7145L306.37 34.6316C306.608 35.0901 307.417 35.5432 308.095 35.1913C308.772 34.8393 308.867 33.9169 308.629 33.4584L307.081 30.478C306.962 30.2488 306.486 29.3317 307.615 28.7451C308.293 28.3932 308.983 28.6171 309.34 29.3048L310.769 32.056C311.126 32.7437 311.935 33.1969 312.612 32.8449C313.29 32.493 313.385 31.5706 313.147 31.112L312.551 29.9657C312.194 29.278 312.408 28.5848 313.085 28.2329Z" fill="#546E7A"/>
</svg>
